HIERARCHY
ROOT Hips
{
	OFFSET 0.000000 71.427986 0.000000
	CHANNELS 6 Xposition Yposition Zposition Xrotation Yrotation Zrotation
	JOINT Pelvis
	{
		OFFSET 0.000000 0.000000 0.000000
		CHANNELS 3 Xrotation Yrotation Zrotation
		JOINT LeftUpLeg
		{
			OFFSET 6.797100 -2.508499 -1.318700
			CHANNELS 3 Xrotation Yrotation Zrotation
			JOINT LeftLeg
			{
				OFFSET 0.069008 -29.241863 0.690200
				CHANNELS 3 Xrotation Yrotation Zrotation
				JOINT LeftFoot
				{
					OFFSET -0.069008 -29.568123 -0.266800
					CHANNELS 3 Xrotation Yrotation Zrotation
					JOINT LeftToeBase
					{
						OFFSET 3.145500 -8.631000 16.059900
						CHANNELS 3 Xrotation Yrotation Zrotation
						End Site
						{
							OFFSET 0.000000 18.501587 0.000000
						}
					}
				}
			}
			JOINT Left_ShortSleeve
			{
				OFFSET 0.265923 -10.480953 1.153800
				CHANNELS 3 Xrotation Yrotation Zrotation
				End Site
				{
					OFFSET 1.725763 19.823879 0.000000
				}
			}
		}
		JOINT RightUpLeg
		{
			OFFSET -6.797100 -2.508499 -1.318700
			CHANNELS 3 Xrotation Yrotation Zrotation
			JOINT RightLeg
			{
				OFFSET -0.082453 -29.241932 0.688000
				CHANNELS 3 Xrotation Yrotation Zrotation
				JOINT RightFoot
				{
					OFFSET 0.082453 -29.568058 -0.264600
					CHANNELS 3 Xrotation Yrotation Zrotation
					JOINT RightToeBase
					{
						OFFSET -3.115300 -8.682800 16.113400
						CHANNELS 3 Xrotation Yrotation Zrotation
						End Site
						{
							OFFSET 0.000000 18.567114 0.000000
						}
					}
				}
			}
			JOINT Right_ShortSleeve
			{
				OFFSET -0.265923 -10.480953 1.153800
				CHANNELS 3 Xrotation Yrotation Zrotation
				End Site
				{
					OFFSET -1.725766 19.823910 0.000000
				}
			}
		}
	}
	JOINT Spine
	{
		OFFSET 0.000000 13.368103 0.470500
		CHANNELS 3 Xrotation Yrotation Zrotation
		JOINT Spine1
		{
			OFFSET 0.147000 13.837402 0.538800
			CHANNELS 3 Xrotation Yrotation Zrotation
			JOINT Spine2
			{
				OFFSET 0.168000 16.242897 -1.435500
				CHANNELS 3 Xrotation Yrotation Zrotation
				JOINT Neck
				{
					OFFSET 0.217200 18.631500 -1.679100
					CHANNELS 3 Xrotation Yrotation Zrotation
					JOINT Head
					{
						OFFSET 0.000000 6.599396 1.385900
						CHANNELS 3 Xrotation Yrotation Zrotation
						JOINT Hat
						{
							OFFSET -0.532200 27.220596 -10.096100
							CHANNELS 3 Xrotation Yrotation Zrotation
							End Site
							{
								OFFSET 0.000000 22.029861 0.000000
							}
						}
						JOINT HairD
						{
							OFFSET -10.777400 17.437393 -1.325900
							CHANNELS 3 Xrotation Yrotation Zrotation
							JOINT HairD1
							{
								OFFSET -3.290299 -11.051193 1.062200
								CHANNELS 3 Xrotation Yrotation Zrotation
								End Site
								{
									OFFSET 0.000000 11.579437 0.000000
								}
							}
						}
						JOINT HairB
						{
							OFFSET -10.777400 17.437393 1.467900
							CHANNELS 3 Xrotation Yrotation Zrotation
							JOINT HairB1
							{
								OFFSET -1.561200 -12.956299 3.590200
								CHANNELS 3 Xrotation Yrotation Zrotation
								End Site
								{
									OFFSET 0.000000 13.534866 0.000000
								}
							}
						}
						JOINT HairA
						{
							OFFSET 9.713100 17.437393 1.467900
							CHANNELS 3 Xrotation Yrotation Zrotation
							JOINT HairA1
							{
								OFFSET 1.561200 -12.956299 3.590200
								CHANNELS 3 Xrotation Yrotation Zrotation
								End Site
								{
									OFFSET 0.000000 13.534866 0.000000
								}
							}
						}
						JOINT HairC
						{
							OFFSET 9.713100 17.437393 -1.325900
							CHANNELS 3 Xrotation Yrotation Zrotation
							JOINT HairC1
							{
								OFFSET 3.290300 -11.051193 1.062200
								CHANNELS 3 Xrotation Yrotation Zrotation
								End Site
								{
									OFFSET 0.000000 11.579437 0.000000
								}
							}
						}
					}
				}
				JOINT LeftShoulder
				{
					OFFSET 5.101800 15.108002 -2.763700
					CHANNELS 3 Xrotation Yrotation Zrotation
					JOINT LeftArm
					{
						OFFSET 9.825497 2.506317 -1.597400
						CHANNELS 3 Xrotation Yrotation Zrotation
						JOINT LeftForeArm
						{
							OFFSET 21.966244 0.000000 0.000000
							CHANNELS 3 Xrotation Yrotation Zrotation
							JOINT LeftHand
							{
								OFFSET 33.879036 0.000000 0.000000
								CHANNELS 3 Xrotation Yrotation Zrotation
								JOINT LeftHandThumb1
								{
									OFFSET 6.715286 -2.359680 3.363841
									CHANNELS 3 Xrotation Yrotation Zrotation
									JOINT LeftHandThumb2
									{
										OFFSET 2.507072 -1.447464 1.447461
										CHANNELS 3 Xrotation Yrotation Zrotation
										JOINT LeftHandThumb3
										{
											OFFSET 2.898338 -1.673355 1.673357
											CHANNELS 3 Xrotation Yrotation Zrotation
											End Site
											{
												OFFSET -0.295959 3.727692 -0.131651
											}
										}
									}
								}
								JOINT LeftHandIndex1
								{
									OFFSET 14.190811 -0.254547 3.840278
									CHANNELS 3 Xrotation Yrotation Zrotation
									JOINT LeftHandIndex2
									{
										OFFSET 3.551727 0.000000 -0.000000
										CHANNELS 3 Xrotation Yrotation Zrotation
										JOINT LeftHandIndex3
										{
											OFFSET 2.894196 0.000000 0.000000
											CHANNELS 3 Xrotation Yrotation Zrotation
											End Site
											{
												OFFSET -1.000603 2.690872 0.366626
											}
										}
									}
								}
								JOINT LeftHandMiddle1
								{
									OFFSET 13.776489 0.000000 0.000000
									CHANNELS 3 Xrotation Yrotation Zrotation
									JOINT LeftHandMiddle2
									{
										OFFSET 3.438232 0.000000 0.000000
										CHANNELS 3 Xrotation Yrotation Zrotation
										JOINT LeftHandMiddle3
										{
											OFFSET 3.691551 0.000000 0.000000
											CHANNELS 3 Xrotation Yrotation Zrotation
											End Site
											{
												OFFSET -1.082298 3.499527 0.457670
											}
										}
									}
								}
								JOINT LeftHandRing1
								{
									OFFSET 13.966164 -0.268127 -3.067488
									CHANNELS 3 Xrotation Yrotation Zrotation
									JOINT LeftHandRing2
									{
										OFFSET 3.162567 0.000000 0.000000
										CHANNELS 3 Xrotation Yrotation Zrotation
										JOINT LeftHandRing3
										{
											OFFSET 3.324348 0.000000 0.000000
											CHANNELS 3 Xrotation Yrotation Zrotation
											End Site
											{
												OFFSET -0.861900 3.184998 0.405154
											}
										}
									}
								}
								JOINT LeftHandPinky1
								{
									OFFSET 13.131393 -0.168503 -5.746925
									CHANNELS 3 Xrotation Yrotation Zrotation
									JOINT LeftHandPinky2
									{
										OFFSET 2.849182 0.000000 0.000000
										CHANNELS 3 Xrotation Yrotation Zrotation
										JOINT LeftHandPinky3
										{
											OFFSET 2.805038 0.000000 0.000000
											CHANNELS 3 Xrotation Yrotation Zrotation
											End Site
											{
												OFFSET -0.882500 2.642609 0.325652
											}
										}
									}
								}
							}
							JOINT Left_Sleeve
							{
								OFFSET 6.592125 -0.646545 0.805568
								CHANNELS 3 Xrotation Yrotation Zrotation
								End Site
								{
									OFFSET -0.000179 20.275787 -0.000000
								}
							}
						}
					}
				}
				JOINT RightShoulder
				{
					OFFSET -5.731700 15.108002 -2.763700
					CHANNELS 3 Xrotation Yrotation Zrotation
					JOINT RightArm
					{
						OFFSET -9.825497 2.506317 -1.597400
						CHANNELS 3 Xrotation Yrotation Zrotation
						JOINT RightForeArm
						{
							OFFSET -21.966242 0.000000 0.000000
							CHANNELS 3 Xrotation Yrotation Zrotation
							JOINT RightHand
							{
								OFFSET -33.879032 0.000000 0.000000
								CHANNELS 3 Xrotation Yrotation Zrotation
								JOINT RightHandThumb1
								{
									OFFSET -6.715286 -2.359680 3.363841
									CHANNELS 3 Xrotation Yrotation Zrotation
									JOINT RightHandThumb2
									{
										OFFSET -2.507072 -1.447464 1.447461
										CHANNELS 3 Xrotation Yrotation Zrotation
										JOINT RightHandThumb3
										{
											OFFSET -2.898338 -1.673355 1.673357
											CHANNELS 3 Xrotation Yrotation Zrotation
											End Site
											{
												OFFSET 0.295959 3.727692 -0.131651
											}
										}
									}
								}
								JOINT RightHandIndex1
								{
									OFFSET -14.190811 -0.254547 3.840278
									CHANNELS 3 Xrotation Yrotation Zrotation
									JOINT RightHandIndex2
									{
										OFFSET -3.551727 0.000000 -0.000000
										CHANNELS 3 Xrotation Yrotation Zrotation
										JOINT RightHandIndex3
										{
											OFFSET -2.894196 0.000000 0.000000
											CHANNELS 3 Xrotation Yrotation Zrotation
											End Site
											{
												OFFSET 1.000603 2.690872 0.366626
											}
										}
									}
								}
								JOINT RightHandMiddle1
								{
									OFFSET -13.776489 0.000000 0.000000
									CHANNELS 3 Xrotation Yrotation Zrotation
									JOINT RightHandMiddle2
									{
										OFFSET -3.438232 0.000000 0.000000
										CHANNELS 3 Xrotation Yrotation Zrotation
										JOINT RightHandMiddle3
										{
											OFFSET -3.691551 0.000000 0.000000
											CHANNELS 3 Xrotation Yrotation Zrotation
											End Site
											{
												OFFSET 1.082298 3.499527 0.457670
											}
										}
									}
								}
								JOINT RightHandRing1
								{
									OFFSET -13.966164 -0.268127 -3.067488
									CHANNELS 3 Xrotation Yrotation Zrotation
									JOINT RightHandRing2
									{
										OFFSET -3.162567 0.000000 0.000000
										CHANNELS 3 Xrotation Yrotation Zrotation
										JOINT RightHandRing3
										{
											OFFSET -3.324348 0.000000 0.000000
											CHANNELS 3 Xrotation Yrotation Zrotation
											End Site
											{
												OFFSET 0.861900 3.184998 0.405154
											}
										}
									}
								}
								JOINT RightHandPinky1
								{
									OFFSET -13.131393 -0.168503 -5.746925
									CHANNELS 3 Xrotation Yrotation Zrotation
									JOINT RightHandPinky2
									{
										OFFSET -2.849182 0.000000 0.000000
										CHANNELS 3 Xrotation Yrotation Zrotation
										JOINT RightHandPinky3
										{
											OFFSET -2.805038 0.000000 0.000000
											CHANNELS 3 Xrotation Yrotation Zrotation
											End Site
											{
												OFFSET 0.882500 2.642609 0.325652
											}
										}
									}
								}
							}
							JOINT Right_Sleeve
							{
								OFFSET -6.592125 -0.646545 0.805568
								CHANNELS 3 Xrotation Yrotation Zrotation
								End Site
								{
									OFFSET 0.000179 20.275787 -0.000000
								}
							}
						}
					}
				}
				JOINT Bind_Right_JacketString
				{
					OFFSET -3.534800 11.969597 7.200700
					CHANNELS 3 Xrotation Yrotation Zrotation
					JOINT Bind_Right_JacketString1
					{
						OFFSET -0.319900 -6.102600 2.794100
						CHANNELS 3 Xrotation Yrotation Zrotation
						End Site
						{
							OFFSET 0.000000 6.719452 0.000000
						}
					}
				}
				JOINT Bind_Left_JacketString
				{
					OFFSET 2.904800 11.969597 7.200700
					CHANNELS 3 Xrotation Yrotation Zrotation
					JOINT Bind_Left_JacketString1
					{
						OFFSET 0.364800 -5.904503 3.186800
						CHANNELS 3 Xrotation Yrotation Zrotation
						End Site
						{
							OFFSET 0.000000 6.719513 0.000000
						}
					}
				}
				JOINT HairE
				{
					OFFSET 5.915200 17.612701 -11.592200
					CHANNELS 3 Xrotation Yrotation Zrotation
					JOINT HairE1
					{
						OFFSET 0.289200 -7.171898 -1.284500
						CHANNELS 3 Xrotation Yrotation Zrotation
						End Site
						{
							OFFSET 0.000000 7.291756 0.000000
						}
					}
				}
				JOINT HairF
				{
					OFFSET -0.864800 17.612701 -11.592200
					CHANNELS 3 Xrotation Yrotation Zrotation
					JOINT HairF1
					{
						OFFSET 0.000000 -14.087097 -2.127501
						CHANNELS 3 Xrotation Yrotation Zrotation
						End Site
						{
							OFFSET 0.000000 14.246841 0.000000
						}
					}
				}
				JOINT HairG
				{
					OFFSET -8.087700 17.612701 -11.592200
					CHANNELS 3 Xrotation Yrotation Zrotation
					JOINT HairG1
					{
						OFFSET -0.293600 -6.081398 -0.910100
						CHANNELS 3 Xrotation Yrotation Zrotation
						End Site
						{
							OFFSET 0.000000 6.156120 0.000000
						}
					}
				}
			}
		}
	}
	JOINT Pouch
	{
		OFFSET 0.000000 4.394501 10.847300
		CHANNELS 3 Xrotation Yrotation Zrotation
		End Site
		{
			OFFSET 0.000000 21.880577 0.000000
		}
	}
	JOINT Bag
	{
		OFFSET -13.229000 4.813004 -0.593300
		CHANNELS 3 Xrotation Yrotation Zrotation
		End Site
		{
			OFFSET 0.000000 21.880577 0.000000
		}
	}
	JOINT OccupyGuyFacialAnim_Joint
	{
		OFFSET 1.000000 -70.206398 -1.655000
		CHANNELS 3 Xrotation Yrotation Zrotation
		End Site
		{
			OFFSET 0.000000 21.880577 0.000000
		}
	}
}
MOTION
Frames: 4
Frame Time: 0.033333
-0.603566 64.424789 1.126598 0.676325 -43.209973 3.401505 0.000000 -0.000001 -0.000000 -6.641163 -0.865385 1.897906 48.362042 16.147078 11.427992 -38.734030 1.243537 8.906109 -0.000002 0.000000 -0.000000 0.000001 0.000002 0.000000 -37.861596 -6.306011 -23.271059 30.262243 10.314607 5.246309 8.798868 -26.132876 8.642880 0.000000 -0.000000 0.000000 -0.000001 0.000000 -0.000000 1.135838 1.415732 3.875928 1.851079 2.827993 1.005357 1.804824 2.850652 1.022714 12.946741 7.197486 -5.158517 0.760078 31.268138 8.262417 0.000000 -0.000000 0.000000 0.000000 -0.000000 0.000000 0.000000 -0.000000 -0.000000 0.000000 -0.000000 0.000000 0.000001 -0.000000 0.000000 0.000000 -0.000000 0.000000 0.000001 -0.000000 0.000000 0.000000 -0.000000 0.000000 0.000000 -0.000000 0.000000 1.409444 -12.492944 -11.273875 -45.868654 -10.565382 -43.463868 -0.000025 -66.326662 -0.000027 -107.204948 19.658604 6.721827 -0.329762 -15.770050 7.158038 3.939054 7.948704 0.746813 -0.000000 0.000001 -0.000001 0.460879 2.481201 -21.042812 0.460904 2.481183 -21.042816 -0.000000 0.000001 0.000005 0.460196 2.479396 -21.026806 0.461595 2.482984 -21.058822 0.000002 -0.000001 -0.000003 0.541874 2.682031 -22.840743 0.541901 2.682030 -22.840755 -0.000002 0.000002 -0.000002 2.453790 6.666648 -25.490088 0.699383 -1.047985 -26.312692 0.000003 0.000003 0.000003 0.000003 0.000002 -0.000001 1.158007 28.936598 10.599932 -32.013804 33.431546 49.496547 0.000111 107.652469 -0.000117 -50.447306 -37.409848 -33.280530 24.742854 -13.971799 11.207096 7.335555 -24.090815 -5.399722 0.000001 -0.000001 0.000001 0.145450 10.767192 -0.131846 4.502356 -6.505473 69.343318 -0.000001 -0.000003 0.000003 5.893982 -6.868175 81.251678 5.893956 -6.868172 81.251678 0.000001 0.000001 0.000003 5.893957 -6.868122 81.251678 5.893954 -6.868183 81.251698 -0.000001 -0.000001 -0.000002 5.893974 -6.868200 81.251684 5.893985 -6.868181 81.251691 -0.000001 -0.000000 -0.000001 0.000001 -0.000002 0.000001 0.000000 -0.000000 -0.000000 0.000000 -0.000000 0.000000 0.000000 -0.000000 -0.000000 0.000000 -0.000000 -0.000000 0.000000 -0.000000 -0.000000 0.000000 -0.000000 0.000000 0.000000 -0.000000 -0.000000 0.000000 -0.000000 -0.000000 0.000000 -0.000000 -0.000000 0.000000 -0.000000 0.000000 0.000000 -0.000001 -0.000000 0.000000 -0.000001 -0.000000 0.000000 -0.000001 -0.000000 
3.248796 64.554855 1.424991 1.616979 -43.501055 4.282677 -0.000000 0.000001 -0.000000 -8.146133 0.216757 1.090413 47.279130 7.260595 9.839674 -38.250951 7.559740 2.834115 0.000000 -0.000001 -0.000001 0.000001 -0.000001 -0.000000 -38.696710 -5.062452 -24.753260 27.526277 10.087279 4.513252 6.238323 -27.626213 8.681701 0.000001 0.000000 0.000000 -0.000001 0.000001 -0.000001 1.140006 1.336550 3.980326 1.878294 2.563144 1.004354 1.838314 2.584820 1.019688 12.591711 7.252955 -5.271783 0.405709 31.546721 7.893534 -0.000001 -0.000001 -0.000002 -0.000001 -0.000001 -0.000002 -0.000001 -0.000001 -0.000003 -0.000001 -0.000001 -0.000002 -0.000000 -0.000000 -0.000002 -0.000001 -0.000001 -0.000002 -0.000000 -0.000000 -0.000002 -0.000001 -0.000001 -0.000002 -0.000001 -0.000001 -0.000002 1.391300 -12.115294 -11.287482 -46.362614 -10.667389 -43.366223 0.000037 -66.661512 0.000037 -107.562871 19.666017 6.741141 -0.329768 -15.770055 7.158043 3.939052 7.948704 0.746812 0.000002 0.000003 -0.000001 0.460886 2.481200 -21.042816 0.460903 2.481184 -21.042804 0.000002 0.000005 0.000002 0.460200 2.479395 -21.026801 0.461594 2.482981 -21.058826 0.000002 0.000001 -0.000001 0.541873 2.682033 -22.840742 0.541899 2.682030 -22.840755 0.000000 0.000000 -0.000003 2.453795 6.666643 -25.490088 0.699381 -1.047982 -26.312692 0.000001 -0.000001 0.000003 0.000001 0.000003 0.000001 1.132306 28.899528 10.582669 -32.707464 34.093723 49.691576 0.000100 107.466593 -0.000110 -51.164124 -37.450518 -33.310341 24.742854 -13.971799 11.207100 7.335557 -24.090817 -5.399721 -0.000000 -0.000002 0.000000 0.145451 10.767192 -0.131848 4.502356 -6.505474 69.343318 -0.000002 -0.000002 0.000002 5.893982 -6.868174 81.251678 5.893954 -6.868173 81.251678 -0.000000 -0.000001 0.000003 5.893956 -6.868122 81.251684 5.893955 -6.868183 81.251698 -0.000000 -0.000001 -0.000000 5.893974 -6.868200 81.251684 5.893985 -6.868180 81.251698 -0.000000 0.000001 0.000001 0.000001 -0.000002 0.000001 0.000000 -0.000002 0.000001 0.000000 -0.000002 0.000001 0.000000 -0.000002 0.000001 0.000000 -0.000002 0.000001 0.000000 -0.000002 0.000001 0.000000 -0.000002 0.000002 0.000000 -0.000002 0.000001 0.000000 -0.000002 0.000001 0.000000 -0.000002 0.000001 0.000000 -0.000002 0.000002 -0.000000 0.000001 -0.000000 -0.000000 0.000001 -0.000000 -0.000000 0.000001 -0.000000 
7.049721 64.953171 1.797177 2.317640 -43.457697 5.137286 0.000000 0.000001 0.000000 -8.888945 0.750870 1.617508 44.097440 6.892285 5.300065 -35.577342 4.664256 -4.954863 0.000000 0.000003 0.000000 -0.000000 0.000005 0.000001 -38.365654 -4.108649 -25.957111 24.723097 6.258736 3.164591 1.815278 -29.318952 7.148904 0.000000 0.000000 0.000000 -0.000002 0.000002 0.000002 1.162051 1.294116 3.780036 1.953289 2.252475 1.061676 1.920914 2.273315 1.073913 12.401960 7.251480 -5.510469 0.032335 31.452253 7.585479 -0.000000 -0.000000 -0.000001 -0.000000 -0.000000 -0.000001 -0.000000 -0.000000 -0.000001 -0.000000 -0.000000 -0.000001 -0.000001 0.000001 0.000001 -0.000000 -0.000000 -0.000001 -0.000001 0.000001 0.000001 -0.000000 -0.000000 -0.000001 -0.000000 -0.000000 -0.000001 1.386504 -11.808602 -11.397479 -47.017943 -11.016250 -43.481756 0.000038 -66.601919 0.000029 -107.747102 19.663278 6.730763 -0.329765 -15.770050 7.158039 3.939056 7.948709 0.746808 -0.000000 0.000003 -0.000001 0.460886 2.481200 -21.042817 0.460906 2.481185 -21.042811 0.000002 0.000002 0.000000 0.460201 2.479390 -21.026807 0.461598 2.482985 -21.058822 0.000001 0.000001 -0.000001 0.541882 2.682027 -22.840742 0.541897 2.682035 -22.840755 0.000005 0.000002 -0.000004 2.453793 6.666649 -25.490087 0.699383 -1.047982 -26.312691 -0.000001 0.000001 0.000003 0.000000 -0.000001 0.000004 1.086797 29.016577 10.556937 -33.240147 34.481534 49.708269 0.000268 107.272677 -0.000264 -51.015656 -37.498859 -33.344591 24.742850 -13.971799 11.207100 7.335556 -24.090817 -5.399720 -0.000001 0.000002 -0.000001 0.145450 10.767195 -0.131847 4.502355 -6.505472 69.343318 -0.000001 -0.000001 0.000002 5.893981 -6.868174 81.251678 5.893955 -6.868172 81.251678 0.000001 -0.000001 0.000003 5.893957 -6.868121 81.251678 5.893955 -6.868183 81.251698 -0.000001 -0.000001 -0.000001 5.893972 -6.868199 81.251684 5.893986 -6.868180 81.251698 -0.000000 0.000000 0.000001 -0.000001 -0.000000 0.000000 0.000000 -0.000000 -0.000001 -0.000000 -0.000000 -0.000000 0.000000 -0.000000 -0.000001 0.000000 -0.000000 -0.000001 0.000000 -0.000000 -0.000001 -0.000000 -0.000000 -0.000000 0.000000 -0.000000 -0.000001 0.000000 -0.000000 -0.000001 0.000000 -0.000000 -0.000001 -0.000000 -0.000000 -0.000000 0.000000 0.000001 0.000000 0.000000 0.000001 0.000000 0.000000 0.000001 0.000000 
10.968908 65.095840 2.215037 2.412127 -43.131869 5.142913 -0.000000 0.000003 -0.000000 -11.143440 0.573227 1.481294 44.081177 1.514925 1.580069 -33.840592 6.383991 -4.806859 -0.000000 0.000004 0.000000 -0.000001 0.000001 -0.000000 -37.253993 -4.332569 -26.947241 22.197198 0.777272 2.097077 0.092691 -30.035019 5.718597 0.000001 -0.000000 -0.000000 0.000003 0.000001 -0.000002 1.223210 1.272650 3.948535 2.109165 2.061844 1.231932 2.079999 2.084566 1.241961 12.415993 7.165265 -5.757791 0.055512 30.933746 7.247392 0.000000 -0.000000 -0.000000 0.000000 -0.000000 -0.000000 0.000000 -0.000000 -0.000001 0.000000 -0.000000 -0.000002 0.000001 -0.000000 -0.000002 0.000000 -0.000000 -0.000002 0.000001 -0.000000 -0.000002 0.000000 -0.000000 -0.000000 0.000000 -0.000000 -0.000000 1.398167 -11.720322 -11.556821 -47.505342 -11.509700 -43.812959 0.000040 -66.178850 0.000051 -107.643556 19.649228 6.694267 -0.329769 -15.770053 7.158047 3.939056 7.948709 0.746813 0.000003 0.000002 -0.000000 0.460884 2.481198 -21.042812 0.460902 2.481185 -21.042811 -0.000000 0.000002 0.000000 0.460201 2.479392 -21.026802 0.461598 2.482986 -21.058826 -0.000002 0.000004 0.000001 0.541874 2.682028 -22.840742 0.541896 2.682032 -22.840754 0.000001 0.000004 -0.000000 2.453794 6.666643 -25.490082 0.699383 -1.047982 -26.312694 -0.000004 -0.000000 0.000001 0.000004 0.000001 0.000001 1.050535 29.225854 10.540084 -33.309986 34.334111 49.508759 0.000218 107.239134 -0.000226 -50.363602 -37.531254 -33.365775 24.742849 -13.971797 11.207098 7.335558 -24.090818 -5.399720 -0.000002 -0.000001 0.000000 0.145451 10.767194 -0.131847 4.502354 -6.505473 69.343318 -0.000004 -0.000002 -0.000000 5.893982 -6.868176 81.251678 5.893956 -6.868171 81.251678 -0.000001 0.000000 0.000003 5.893956 -6.868122 81.251684 5.893954 -6.868184 81.251698 -0.000000 -0.000001 0.000001 5.893974 -6.868200 81.251684 5.893984 -6.868182 81.251698 -0.000000 0.000000 -0.000001 -0.000000 -0.000003 -0.000000 0.000000 0.000001 -0.000000 0.000000 -0.000001 -0.000000 0.000000 0.000001 -0.000000 0.000000 0.000001 -0.000000 0.000000 0.000001 -0.000000 0.000000 -0.000001 -0.000000 0.000000 0.000001 -0.000000 0.000000 0.000001 -0.000000 0.000000 0.000001 -0.000000 0.000000 -0.000001 -0.000000 -0.000000 0.000003 -0.000000 -0.000000 0.000003 -0.000000 -0.000000 0.000003 -0.000000 
